<mxfile host="app.diagrams.net" modified="2023-06-22T14:39:56.599Z" agent="Mozilla/5.0 (X11; Linux x86_64) AppleWebKit/537.36 (KHTML, like Gecko) Chrome/114.0.0.0 Safari/537.36" etag="qqILKo9QADHpAtykrSfA" version="21.5.0" type="github">
  <diagram name="Page-1" id="GnPQn5ZTnlVgDJK1w0f3">
    <mxGraphModel dx="1434" dy="779" grid="1" gridSize="10" guides="1" tooltips="1" connect="1" arrows="1" fold="1" page="1" pageScale="1" pageWidth="827" pageHeight="1169" background="#ffffff" math="1" shadow="0">
      <root>
        <mxCell id="0" />
        <mxCell id="1" parent="0" />
        <mxCell id="-i0w6PKSg4TW8o5FQWR9-1" value="" style="rounded=0;whiteSpace=wrap;html=1;strokeColor=#000000;fillColor=none;strokeWidth=3;" parent="1" vertex="1">
          <mxGeometry x="40" y="120" width="80" height="240" as="geometry" />
        </mxCell>
        <mxCell id="-i0w6PKSg4TW8o5FQWR9-2" value="&lt;font&gt;$$y_1^1$$&lt;/font&gt;" style="rounded=1;whiteSpace=wrap;html=1;strokeColor=#10739e;fillColor=#b1ddf0;strokeWidth=1;fontColor=#000000;" parent="1" vertex="1">
          <mxGeometry x="50" y="130" width="60" height="30" as="geometry" />
        </mxCell>
        <mxCell id="-i0w6PKSg4TW8o5FQWR9-6" value="$$y_{1}^{2}$$" style="rounded=1;whiteSpace=wrap;html=1;strokeColor=#ae4132;fillColor=#fad9d5;strokeWidth=1;fontColor=#000000;" parent="1" vertex="1">
          <mxGeometry x="50" y="170" width="60" height="30" as="geometry" />
        </mxCell>
        <mxCell id="-i0w6PKSg4TW8o5FQWR9-7" value="" style="endArrow=none;dashed=1;html=1;rounded=0;strokeColor=#000000;entryX=0.5;entryY=1;entryDx=0;entryDy=0;exitX=0.5;exitY=0;exitDx=0;exitDy=0;dashPattern=1 2;strokeWidth=3;targetPerimeterSpacing=0;endSize=6;" parent="1" source="-i0w6PKSg4TW8o5FQWR9-8" target="-i0w6PKSg4TW8o5FQWR9-6" edge="1">
          <mxGeometry width="50" height="50" relative="1" as="geometry">
            <mxPoint x="50" y="330" as="sourcePoint" />
            <mxPoint x="100" y="220" as="targetPoint" />
          </mxGeometry>
        </mxCell>
        <mxCell id="-i0w6PKSg4TW8o5FQWR9-8" value="$$y_{1}^{b}$$" style="rounded=1;whiteSpace=wrap;html=1;strokeColor=#10739e;fillColor=#b1ddf0;strokeWidth=1;fontColor=#000000;" parent="1" vertex="1">
          <mxGeometry x="50" y="250" width="60" height="30" as="geometry" />
        </mxCell>
        <mxCell id="-i0w6PKSg4TW8o5FQWR9-9" value="" style="endArrow=none;dashed=1;html=1;rounded=0;strokeColor=#000000;exitX=0.5;exitY=0;exitDx=0;exitDy=0;dashPattern=1 2;strokeWidth=3;targetPerimeterSpacing=0;endSize=6;entryX=0.5;entryY=1;entryDx=0;entryDy=0;" parent="1" source="-i0w6PKSg4TW8o5FQWR9-10" target="-i0w6PKSg4TW8o5FQWR9-8" edge="1">
          <mxGeometry width="50" height="50" relative="1" as="geometry">
            <mxPoint x="50" y="400" as="sourcePoint" />
            <mxPoint x="70" y="290" as="targetPoint" />
          </mxGeometry>
        </mxCell>
        <mxCell id="-i0w6PKSg4TW8o5FQWR9-10" value="$$y_{1}^{Mb}$$" style="rounded=1;whiteSpace=wrap;html=1;strokeColor=#ae4132;fillColor=#fad9d5;strokeWidth=1;fontColor=#000000;" parent="1" vertex="1">
          <mxGeometry x="50" y="320" width="60" height="30" as="geometry" />
        </mxCell>
        <mxCell id="-i0w6PKSg4TW8o5FQWR9-11" value="" style="rounded=0;whiteSpace=wrap;html=1;strokeColor=#000000;fillColor=none;strokeWidth=3;" parent="1" vertex="1">
          <mxGeometry x="160" y="120" width="80" height="240" as="geometry" />
        </mxCell>
        <mxCell id="-i0w6PKSg4TW8o5FQWR9-12" value="$$y_{2}^{1}$$" style="rounded=1;whiteSpace=wrap;html=1;strokeColor=#10739e;fillColor=#b1ddf0;strokeWidth=1;fontColor=#000000;" parent="1" vertex="1">
          <mxGeometry x="170" y="130" width="60" height="30" as="geometry" />
        </mxCell>
        <mxCell id="-i0w6PKSg4TW8o5FQWR9-13" value="$$y_{2}^{2}$$" style="rounded=1;whiteSpace=wrap;html=1;strokeColor=#ae4132;fillColor=#fad9d5;strokeWidth=1;fontColor=#000000;" parent="1" vertex="1">
          <mxGeometry x="170" y="170" width="60" height="30" as="geometry" />
        </mxCell>
        <mxCell id="-i0w6PKSg4TW8o5FQWR9-14" value="" style="endArrow=none;dashed=1;html=1;rounded=0;strokeColor=#000000;entryX=0.5;entryY=1;entryDx=0;entryDy=0;exitX=0.5;exitY=0;exitDx=0;exitDy=0;dashPattern=1 2;strokeWidth=3;targetPerimeterSpacing=0;endSize=6;" parent="1" source="-i0w6PKSg4TW8o5FQWR9-15" target="-i0w6PKSg4TW8o5FQWR9-13" edge="1">
          <mxGeometry width="50" height="50" relative="1" as="geometry">
            <mxPoint x="170" y="330" as="sourcePoint" />
            <mxPoint x="220" y="220" as="targetPoint" />
          </mxGeometry>
        </mxCell>
        <mxCell id="-i0w6PKSg4TW8o5FQWR9-15" value="$$y_{2}^{b}$$" style="rounded=1;whiteSpace=wrap;html=1;strokeColor=#10739e;fillColor=#b1ddf0;strokeWidth=1;fontColor=#000000;" parent="1" vertex="1">
          <mxGeometry x="170" y="250" width="60" height="30" as="geometry" />
        </mxCell>
        <mxCell id="-i0w6PKSg4TW8o5FQWR9-16" value="" style="endArrow=none;dashed=1;html=1;rounded=0;strokeColor=#000000;exitX=0.5;exitY=0;exitDx=0;exitDy=0;dashPattern=1 2;strokeWidth=3;targetPerimeterSpacing=0;endSize=6;entryX=0.5;entryY=1;entryDx=0;entryDy=0;" parent="1" source="-i0w6PKSg4TW8o5FQWR9-17" target="-i0w6PKSg4TW8o5FQWR9-15" edge="1">
          <mxGeometry width="50" height="50" relative="1" as="geometry">
            <mxPoint x="170" y="400" as="sourcePoint" />
            <mxPoint x="190" y="290" as="targetPoint" />
          </mxGeometry>
        </mxCell>
        <mxCell id="-i0w6PKSg4TW8o5FQWR9-17" value="$$y_{2}^{Mb}$$" style="rounded=1;whiteSpace=wrap;html=1;strokeColor=#ae4132;fillColor=#fad9d5;strokeWidth=1;fontColor=#000000;" parent="1" vertex="1">
          <mxGeometry x="170" y="320" width="60" height="30" as="geometry" />
        </mxCell>
        <mxCell id="-i0w6PKSg4TW8o5FQWR9-18" value="" style="rounded=0;whiteSpace=wrap;html=1;strokeColor=#000000;fillColor=none;strokeWidth=3;" parent="1" vertex="1">
          <mxGeometry x="280" y="120" width="80" height="240" as="geometry" />
        </mxCell>
        <mxCell id="-i0w6PKSg4TW8o5FQWR9-19" value="$$y_{3}^{1}$$" style="rounded=1;whiteSpace=wrap;html=1;strokeColor=#10739e;fillColor=#b1ddf0;strokeWidth=1;fontColor=#000000;" parent="1" vertex="1">
          <mxGeometry x="290" y="130" width="60" height="30" as="geometry" />
        </mxCell>
        <mxCell id="-i0w6PKSg4TW8o5FQWR9-20" value="$$y_{3}^{2}$$" style="rounded=1;whiteSpace=wrap;html=1;strokeColor=#ae4132;fillColor=#fad9d5;strokeWidth=1;fontColor=#000000;" parent="1" vertex="1">
          <mxGeometry x="290" y="170" width="60" height="30" as="geometry" />
        </mxCell>
        <mxCell id="-i0w6PKSg4TW8o5FQWR9-21" value="" style="endArrow=none;dashed=1;html=1;rounded=0;strokeColor=#000000;entryX=0.5;entryY=1;entryDx=0;entryDy=0;exitX=0.5;exitY=0;exitDx=0;exitDy=0;dashPattern=1 2;strokeWidth=3;targetPerimeterSpacing=0;endSize=6;" parent="1" source="-i0w6PKSg4TW8o5FQWR9-22" target="-i0w6PKSg4TW8o5FQWR9-20" edge="1">
          <mxGeometry width="50" height="50" relative="1" as="geometry">
            <mxPoint x="290" y="330" as="sourcePoint" />
            <mxPoint x="340" y="220" as="targetPoint" />
          </mxGeometry>
        </mxCell>
        <mxCell id="-i0w6PKSg4TW8o5FQWR9-22" value="$$y_{3}^{b}$$" style="rounded=1;whiteSpace=wrap;html=1;strokeColor=#10739e;fillColor=#b1ddf0;strokeWidth=1;fontColor=#000000;" parent="1" vertex="1">
          <mxGeometry x="290" y="250" width="60" height="30" as="geometry" />
        </mxCell>
        <mxCell id="-i0w6PKSg4TW8o5FQWR9-23" value="" style="endArrow=none;dashed=1;html=1;rounded=0;strokeColor=#000000;exitX=0.5;exitY=0;exitDx=0;exitDy=0;dashPattern=1 2;strokeWidth=3;targetPerimeterSpacing=0;endSize=6;entryX=0.5;entryY=1;entryDx=0;entryDy=0;" parent="1" source="-i0w6PKSg4TW8o5FQWR9-24" target="-i0w6PKSg4TW8o5FQWR9-22" edge="1">
          <mxGeometry width="50" height="50" relative="1" as="geometry">
            <mxPoint x="290" y="400" as="sourcePoint" />
            <mxPoint x="310" y="290" as="targetPoint" />
          </mxGeometry>
        </mxCell>
        <mxCell id="-i0w6PKSg4TW8o5FQWR9-24" value="$$y_{3}^{Mb}$$" style="rounded=1;whiteSpace=wrap;html=1;strokeColor=#ae4132;fillColor=#fad9d5;strokeWidth=1;fontColor=#000000;" parent="1" vertex="1">
          <mxGeometry x="290" y="320" width="60" height="30" as="geometry" />
        </mxCell>
        <mxCell id="-i0w6PKSg4TW8o5FQWR9-25" value="" style="rounded=0;whiteSpace=wrap;html=1;strokeColor=#000000;fillColor=none;strokeWidth=3;" parent="1" vertex="1">
          <mxGeometry x="630" y="120" width="80" height="240" as="geometry" />
        </mxCell>
        <mxCell id="-i0w6PKSg4TW8o5FQWR9-26" value="$$y_{n_S}^{1}$$" style="rounded=1;whiteSpace=wrap;html=1;strokeColor=#10739e;fillColor=#b1ddf0;strokeWidth=1;fontColor=#000000;" parent="1" vertex="1">
          <mxGeometry x="640" y="130" width="60" height="30" as="geometry" />
        </mxCell>
        <mxCell id="-i0w6PKSg4TW8o5FQWR9-27" value="$$y_{n_S}^{2}$$" style="rounded=1;whiteSpace=wrap;html=1;strokeColor=#ae4132;fillColor=#fad9d5;strokeWidth=1;fontColor=#000000;" parent="1" vertex="1">
          <mxGeometry x="640" y="170" width="60" height="30" as="geometry" />
        </mxCell>
        <mxCell id="-i0w6PKSg4TW8o5FQWR9-28" value="" style="endArrow=none;dashed=1;html=1;rounded=0;strokeColor=#000000;entryX=0.5;entryY=1;entryDx=0;entryDy=0;exitX=0.5;exitY=0;exitDx=0;exitDy=0;dashPattern=1 2;strokeWidth=3;targetPerimeterSpacing=0;endSize=6;" parent="1" source="-i0w6PKSg4TW8o5FQWR9-29" target="-i0w6PKSg4TW8o5FQWR9-27" edge="1">
          <mxGeometry width="50" height="50" relative="1" as="geometry">
            <mxPoint x="640" y="330" as="sourcePoint" />
            <mxPoint x="690" y="220" as="targetPoint" />
          </mxGeometry>
        </mxCell>
        <mxCell id="-i0w6PKSg4TW8o5FQWR9-29" value="$$y_{n_S}^{b}$$" style="rounded=1;whiteSpace=wrap;html=1;strokeColor=#10739e;fillColor=#b1ddf0;strokeWidth=1;fontColor=#000000;" parent="1" vertex="1">
          <mxGeometry x="640" y="250" width="60" height="30" as="geometry" />
        </mxCell>
        <mxCell id="-i0w6PKSg4TW8o5FQWR9-30" value="" style="endArrow=none;dashed=1;html=1;rounded=0;strokeColor=#000000;exitX=0.5;exitY=0;exitDx=0;exitDy=0;dashPattern=1 2;strokeWidth=3;targetPerimeterSpacing=0;endSize=6;entryX=0.5;entryY=1;entryDx=0;entryDy=0;" parent="1" source="-i0w6PKSg4TW8o5FQWR9-31" target="-i0w6PKSg4TW8o5FQWR9-29" edge="1">
          <mxGeometry width="50" height="50" relative="1" as="geometry">
            <mxPoint x="640" y="400" as="sourcePoint" />
            <mxPoint x="660" y="290" as="targetPoint" />
          </mxGeometry>
        </mxCell>
        <mxCell id="-i0w6PKSg4TW8o5FQWR9-31" value="$$y_{n_S}^{Mb}$$" style="rounded=1;whiteSpace=wrap;html=1;strokeColor=#ae4132;fillColor=#fad9d5;strokeWidth=1;fontColor=#000000;" parent="1" vertex="1">
          <mxGeometry x="640" y="320" width="60" height="30" as="geometry" />
        </mxCell>
        <mxCell id="-i0w6PKSg4TW8o5FQWR9-32" value="" style="endArrow=none;dashed=1;html=1;dashPattern=1 3;strokeWidth=3;rounded=0;strokeColor=#000000;exitX=1;exitY=0.5;exitDx=0;exitDy=0;entryX=0;entryY=0.5;entryDx=0;entryDy=0;" parent="1" source="-i0w6PKSg4TW8o5FQWR9-18" target="-i0w6PKSg4TW8o5FQWR9-25" edge="1">
          <mxGeometry width="50" height="50" relative="1" as="geometry">
            <mxPoint x="390" y="310" as="sourcePoint" />
            <mxPoint x="590" y="250" as="targetPoint" />
          </mxGeometry>
        </mxCell>
        <mxCell id="-i0w6PKSg4TW8o5FQWR9-33" value="&lt;font style=&quot;font-size: 18px;&quot;&gt;DB 1&lt;/font&gt;" style="text;html=1;strokeColor=none;fillColor=none;align=center;verticalAlign=middle;whiteSpace=wrap;rounded=0;fontColor=#005700;strokeWidth=3;fontSize=18;fontStyle=1" parent="1" vertex="1">
          <mxGeometry x="50" y="90" width="60" height="30" as="geometry" />
        </mxCell>
        <mxCell id="-i0w6PKSg4TW8o5FQWR9-34" value="DB 2" style="text;html=1;strokeColor=none;fillColor=none;align=center;verticalAlign=middle;whiteSpace=wrap;rounded=0;fontColor=#005700;strokeWidth=3;fontSize=18;fontStyle=1" parent="1" vertex="1">
          <mxGeometry x="170" y="90" width="60" height="30" as="geometry" />
        </mxCell>
        <mxCell id="-i0w6PKSg4TW8o5FQWR9-35" value="DB 3" style="text;html=1;strokeColor=none;fillColor=none;align=center;verticalAlign=middle;whiteSpace=wrap;rounded=0;fontColor=#005700;strokeWidth=3;fontSize=18;fontStyle=1" parent="1" vertex="1">
          <mxGeometry x="290" y="90" width="60" height="30" as="geometry" />
        </mxCell>
        <mxCell id="-i0w6PKSg4TW8o5FQWR9-36" value="DB &lt;span style=&quot;font-size: 18px;&quot;&gt;n&lt;/span&gt;&lt;sub style=&quot;font-size: 18px;&quot;&gt;&lt;span style=&quot;font-size: 18px;&quot;&gt;s&lt;/span&gt;&amp;nbsp;&lt;/sub&gt;" style="text;html=1;strokeColor=none;fillColor=none;align=center;verticalAlign=middle;whiteSpace=wrap;rounded=0;fontColor=#005700;strokeWidth=3;fontSize=18;fontStyle=1" parent="1" vertex="1">
          <mxGeometry x="640" y="90" width="60" height="30" as="geometry" />
        </mxCell>
        <mxCell id="P5K5muQRinviXdcs4ny0-1" value="" style="rounded=0;whiteSpace=wrap;html=1;strokeColor=#FF0000;fillColor=none;dashed=1;strokeWidth=3;" vertex="1" parent="1">
          <mxGeometry x="150" y="90" width="220" height="280" as="geometry" />
        </mxCell>
        <mxCell id="P5K5muQRinviXdcs4ny0-6" value="" style="sketch=0;outlineConnect=0;fontColor=#333333;fillColor=#0f0f0f;strokeColor=#666666;dashed=0;verticalLabelPosition=bottom;verticalAlign=top;align=center;html=1;fontSize=12;fontStyle=0;aspect=fixed;pointerEvents=1;shape=mxgraph.aws4.user;strokeWidth=3;" vertex="1" parent="1">
          <mxGeometry x="351" y="657" width="78" height="78" as="geometry" />
        </mxCell>
        <mxCell id="P5K5muQRinviXdcs4ny0-7" value="" style="fontColor=#0066CC;verticalAlign=top;verticalLabelPosition=bottom;labelPosition=center;align=center;html=1;outlineConnect=0;fillColor=#CCCCCC;strokeColor=#6881B3;gradientColor=none;gradientDirection=north;strokeWidth=3;shape=mxgraph.networks.pc;" vertex="1" parent="1">
          <mxGeometry x="340" y="540" width="100" height="70" as="geometry" />
        </mxCell>
        <mxCell id="P5K5muQRinviXdcs4ny0-8" value="" style="endArrow=classic;html=1;rounded=0;strokeWidth=3;strokeColor=#026969;" edge="1" parent="1" source="P5K5muQRinviXdcs4ny0-6" target="P5K5muQRinviXdcs4ny0-7">
          <mxGeometry width="50" height="50" relative="1" as="geometry">
            <mxPoint x="396" y="690" as="sourcePoint" />
            <mxPoint x="396" y="630" as="targetPoint" />
          </mxGeometry>
        </mxCell>
        <mxCell id="P5K5muQRinviXdcs4ny0-9" value="Give me message X&lt;sub style=&quot;font-size: 15px;&quot;&gt;d&lt;/sub&gt;" style="text;html=1;strokeColor=none;fillColor=none;align=center;verticalAlign=middle;whiteSpace=wrap;rounded=0;fontColor=#000000;fontSize=15;fontStyle=1" vertex="1" parent="1">
          <mxGeometry x="324" y="620" width="159" height="30" as="geometry" />
        </mxCell>
        <mxCell id="P5K5muQRinviXdcs4ny0-18" value="" style="endArrow=classic;html=1;rounded=0;entryX=0.5;entryY=1;entryDx=0;entryDy=0;strokeColor=#026969;strokeWidth=3;exitX=1;exitY=0.07;exitDx=0;exitDy=0;exitPerimeter=0;" edge="1" parent="1" source="P5K5muQRinviXdcs4ny0-7" target="-i0w6PKSg4TW8o5FQWR9-25">
          <mxGeometry width="50" height="50" relative="1" as="geometry">
            <mxPoint x="470" y="530" as="sourcePoint" />
            <mxPoint x="730" y="320" as="targetPoint" />
          </mxGeometry>
        </mxCell>
        <mxCell id="P5K5muQRinviXdcs4ny0-19" value="" style="endArrow=classic;html=1;rounded=0;strokeColor=#026969;strokeWidth=3;entryX=0.5;entryY=1;entryDx=0;entryDy=0;" edge="1" parent="1" source="P5K5muQRinviXdcs4ny0-7" target="-i0w6PKSg4TW8o5FQWR9-11">
          <mxGeometry width="50" height="50" relative="1" as="geometry">
            <mxPoint x="370" y="550" as="sourcePoint" />
            <mxPoint x="220" y="410" as="targetPoint" />
          </mxGeometry>
        </mxCell>
        <mxCell id="P5K5muQRinviXdcs4ny0-20" value="" style="endArrow=classic;html=1;rounded=0;entryX=0.5;entryY=1;entryDx=0;entryDy=0;strokeColor=#026969;strokeWidth=3;exitX=0;exitY=0;exitDx=0;exitDy=0;exitPerimeter=0;" edge="1" parent="1" source="P5K5muQRinviXdcs4ny0-7" target="-i0w6PKSg4TW8o5FQWR9-1">
          <mxGeometry width="50" height="50" relative="1" as="geometry">
            <mxPoint x="280" y="550" as="sourcePoint" />
            <mxPoint x="70" y="320" as="targetPoint" />
          </mxGeometry>
        </mxCell>
        <mxCell id="P5K5muQRinviXdcs4ny0-21" value="" style="endArrow=classic;html=1;rounded=0;entryX=0.5;entryY=1;entryDx=0;entryDy=0;strokeColor=#026969;strokeWidth=3;exitX=0.5;exitY=0.07;exitDx=0;exitDy=0;exitPerimeter=0;" edge="1" parent="1" source="P5K5muQRinviXdcs4ny0-7" target="-i0w6PKSg4TW8o5FQWR9-18">
          <mxGeometry width="50" height="50" relative="1" as="geometry">
            <mxPoint x="380" y="540" as="sourcePoint" />
            <mxPoint x="270" y="320" as="targetPoint" />
          </mxGeometry>
        </mxCell>
        <mxCell id="P5K5muQRinviXdcs4ny0-22" value="$$q^{(d)}_1$$" style="text;html=1;strokeColor=none;fillColor=none;align=center;verticalAlign=middle;whiteSpace=wrap;rounded=0;fontColor=#000000;fontSize=19;rotation=0;" vertex="1" parent="1">
          <mxGeometry x="60" y="380" width="60" height="30" as="geometry" />
        </mxCell>
        <mxCell id="P5K5muQRinviXdcs4ny0-23" value="$$q^{(d)}_2$$" style="text;html=1;strokeColor=none;fillColor=none;align=center;verticalAlign=middle;whiteSpace=wrap;rounded=0;fontColor=#000000;fontSize=19;rotation=0;" vertex="1" parent="1">
          <mxGeometry x="150" y="380" width="60" height="30" as="geometry" />
        </mxCell>
        <mxCell id="P5K5muQRinviXdcs4ny0-24" value="$$q^{(d)}_3$$" style="text;html=1;strokeColor=none;fillColor=none;align=center;verticalAlign=middle;whiteSpace=wrap;rounded=0;fontColor=#000000;fontSize=19;rotation=0;" vertex="1" parent="1">
          <mxGeometry x="264" y="380" width="60" height="30" as="geometry" />
        </mxCell>
        <mxCell id="P5K5muQRinviXdcs4ny0-25" value="$$q^{(d)}_{n_S}$$" style="text;html=1;strokeColor=none;fillColor=none;align=center;verticalAlign=middle;whiteSpace=wrap;rounded=0;fontColor=#000000;fontSize=19;rotation=0;" vertex="1" parent="1">
          <mxGeometry x="550" y="380" width="60" height="30" as="geometry" />
        </mxCell>
        <mxCell id="P5K5muQRinviXdcs4ny0-36" value="" style="endArrow=classic;html=1;rounded=0;strokeColor=#026969;strokeWidth=3;entryX=0;entryY=0.583;entryDx=0;entryDy=0;entryPerimeter=0;exitX=1.024;exitY=0.586;exitDx=0;exitDy=0;exitPerimeter=0;" edge="1" parent="1" source="-i0w6PKSg4TW8o5FQWR9-11" target="-i0w6PKSg4TW8o5FQWR9-18">
          <mxGeometry width="50" height="50" relative="1" as="geometry">
            <mxPoint x="250" y="270" as="sourcePoint" />
            <mxPoint x="270" y="260" as="targetPoint" />
          </mxGeometry>
        </mxCell>
        <mxCell id="P5K5muQRinviXdcs4ny0-37" value="" style="endArrow=classic;html=1;rounded=0;strokeColor=#026969;strokeWidth=3;entryX=1.006;entryY=0.46;entryDx=0;entryDy=0;entryPerimeter=0;exitX=-0.006;exitY=0.46;exitDx=0;exitDy=0;exitPerimeter=0;" edge="1" parent="1" source="-i0w6PKSg4TW8o5FQWR9-18" target="-i0w6PKSg4TW8o5FQWR9-11">
          <mxGeometry width="50" height="50" relative="1" as="geometry">
            <mxPoint x="252" y="271" as="sourcePoint" />
            <mxPoint x="290" y="270" as="targetPoint" />
          </mxGeometry>
        </mxCell>
        <mxCell id="P5K5muQRinviXdcs4ny0-38" value="d" style="text;html=1;fillColor=none;align=center;verticalAlign=middle;whiteSpace=wrap;rounded=0;fontColor=#000000;fontSize=44;fontStyle=1;strokeWidth=4;" vertex="1" parent="1">
          <mxGeometry x="300" y="50" width="40" height="30" as="geometry" />
        </mxCell>
        <mxCell id="P5K5muQRinviXdcs4ny0-39" value="" style="shape=mxgraph.sysml.x;strokeColor=#FF0000;strokeWidth=4;fontSize=44;" vertex="1" parent="1">
          <mxGeometry x="310" y="55" width="20" height="20" as="geometry" />
        </mxCell>
        <mxCell id="P5K5muQRinviXdcs4ny0-40" value="d" style="text;html=1;fillColor=none;align=center;verticalAlign=middle;whiteSpace=wrap;rounded=0;fontColor=#000000;fontSize=44;fontStyle=1;strokeWidth=4;" vertex="1" parent="1">
          <mxGeometry x="180" y="50" width="40" height="30" as="geometry" />
        </mxCell>
        <mxCell id="P5K5muQRinviXdcs4ny0-41" value="" style="shape=mxgraph.sysml.x;strokeColor=#FF0000;strokeWidth=4;fontSize=44;" vertex="1" parent="1">
          <mxGeometry x="190" y="55" width="20" height="20" as="geometry" />
        </mxCell>
        <mxCell id="P5K5muQRinviXdcs4ny0-42" value="d" style="text;html=1;fillColor=none;align=center;verticalAlign=middle;whiteSpace=wrap;rounded=0;fontColor=#000000;fontSize=44;fontStyle=1;strokeWidth=4;" vertex="1" parent="1">
          <mxGeometry x="60" y="50" width="40" height="30" as="geometry" />
        </mxCell>
        <mxCell id="P5K5muQRinviXdcs4ny0-43" value="" style="shape=mxgraph.sysml.x;strokeColor=#FF0000;strokeWidth=4;fontSize=44;" vertex="1" parent="1">
          <mxGeometry x="70" y="55" width="20" height="20" as="geometry" />
        </mxCell>
        <mxCell id="P5K5muQRinviXdcs4ny0-44" value="d" style="text;html=1;fillColor=none;align=center;verticalAlign=middle;whiteSpace=wrap;rounded=0;fontColor=#000000;fontSize=44;fontStyle=1;strokeWidth=4;" vertex="1" parent="1">
          <mxGeometry x="650" y="50" width="40" height="30" as="geometry" />
        </mxCell>
        <mxCell id="P5K5muQRinviXdcs4ny0-45" value="" style="shape=mxgraph.sysml.x;strokeColor=#FF0000;strokeWidth=4;fontSize=44;" vertex="1" parent="1">
          <mxGeometry x="660" y="55" width="20" height="20" as="geometry" />
        </mxCell>
      </root>
    </mxGraphModel>
  </diagram>
</mxfile>
